<?xml version="1.0" encoding="iso-8859-1"?>
<!-- Generator: Adobe Illustrator 16.0.0, SVG Export Plug-In . SVG Version: 6.00 Build 0)  -->
<!DOCTYPE svg PUBLIC "-//W3C//DTD SVG 1.1//EN" "http://www.w3.org/Graphics/SVG/1.1/DTD/svg11.dtd">
<svg version="1.1" id="Capa_1" xmlns="http://www.w3.org/2000/svg" xmlns:xlink="http://www.w3.org/1999/xlink" x="0px" y="0px"
	 width="69.738px" height="69.738px" viewBox="0 0 69.738 69.738" style="enable-background:new 0 0 69.738 69.738;"
	 xml:space="preserve">

	<g id="Page-1_7_2">
		<path id="Fill-14" d="M21.649,12.196c0-3.668,2.974-6.641,6.642-6.641s6.641,2.973,6.641,6.641
			s-2.973,6.642-6.641,6.642S21.649,15.864,21.649,12.196L21.649,12.196z M32.448,46.501c0.002-0.065,0.008-0.131,0.008-0.197
			l-0.149-18.262h-9.34l0.15,18.338c0.005,0.643,0.14,1.254,0.379,1.809l-4.173,18.706c-0.28,1.259,0.513,2.507,1.771,2.788
			c0.171,0.038,0.342,0.056,0.511,0.056c1.069,0,2.034-0.74,2.277-1.827l3.771-16.906c0.044,0.002,0.088,0.007,0.132,0.007h0.04
			c0.472-0.004,0.927-0.079,1.356-0.213l7.268,17.418c0.373,0.896,1.242,1.436,2.156,1.436c0.299,0,0.604-0.058,0.898-0.18
			c1.189-0.497,1.752-1.864,1.255-3.055L32.448,46.501L32.448,46.501z M36.46,24.539c0-1.289-1.045-2.335-2.335-2.335H17.094
			c-1.289,0-2.335,1.046-2.335,2.335c0,1.29,1.046,2.335,2.335,2.335h17.031C35.415,26.874,36.46,25.829,36.46,24.539L36.46,24.539z
			 M54.979,23.955h-6.629c-0.098-7.8-2.498-15.57-7.217-23.258c-0.422-0.687-1.32-0.902-2.007-0.481
			c-0.687,0.422-0.901,1.321-0.481,2.008c4.111,6.699,6.367,13.338,6.781,19.993c-0.042-0.003-0.08-0.013-0.122-0.013h-8.577
			c0.557,0.621,0.9,1.438,0.9,2.335c0,0.898-0.344,1.715-0.9,2.335h8.577c0.038,0,0.073-0.009,0.111-0.011
			c-0.442,6.61-2.697,13.251-6.774,20c-0.418,0.69-0.195,1.587,0.493,2.004c0.237,0.143,0.497,0.21,0.754,0.21
			c0.494,0,0.976-0.251,1.25-0.705c4.679-7.743,7.076-15.509,7.208-23.25h6.633V23.955L54.979,23.955z"/>
	</g>
</svg>
